<svg width="16" height="16" viewBox="0 0 16 16" fill="none" xmlns="http://www.w3.org/2000/svg">
  <path d="M8 0C3.58 0 0 3.58 0 8C0 11.54 2.29 14.36 5.47 15.35C5.87 15.42 6.02 15.15 6.02 14.93C6.02 14.73 6.01 14.14 6.01 13.44C4 13.87 3.48 12.79 3.48 12.79C3.09 11.98 2.5 11.75 2.5 11.75C1.67 11.24 2.56 11.25 2.56 11.25C3.46 11.31 3.94 12.18 3.94 12.18C4.77 13.54 6.08 13.13 6.56 12.91C6.63 12.37 6.84 11.98 7.08 11.76C5.16 11.54 3.13 10.84 3.13 7.73C3.13 6.85 3.46 6.12 4.01 5.58C3.93 5.35 3.63 4.51 4.09 3.4C4.09 3.4 4.81 3.17 6.01 4.13C6.67 3.94 7.37 3.84 8.07 3.84C8.77 3.84 9.47 3.94 10.13 4.13C11.33 3.17 12.05 3.4 12.05 3.4C12.51 4.51 12.21 5.35 12.13 5.58C12.68 6.12 13.01 6.85 13.01 7.73C13.01 10.85 10.98 11.54 9.06 11.76C9.36 12.03 9.62 12.57 9.62 13.34C9.62 14.4 9.61 14.97 9.61 15.13C9.61 15.35 9.77 15.63 10.17 15.35C13.29 14.36 15.56 11.54 15.56 8C15.56 3.58 12 0 8 0Z" fill="white"/>
</svg>
